# xmcd
#
# Track frame offsets:
#	150
#	15296
#	28084
#	38314
#	50320
#	66211
#	84377
#	98446
#	123121
#	137721
#	154280
#	168671
#	182713
#	195667
#	208464
#	222596
#
# Disc length: 3104 seconds
#
# Revision: 1
# Processed by: cddbd v1.5.2PL0 Copyright (c) Steve Scherf et al.
# Submitted via: audiograbber 1.83.01
#
DISCID=d60c1e10
DTITLE=Canned Heat - On The Road Again
DYEAR=2017
DGENRE=Blues
TTITLE0=On The Road Again
TTITLE1=Same All Over
TTITLE2=I Got My Eyes On You
TTITLE3=I've Got My Mojo Working
TTITLE4=House Of Blue Lights
TTITLE5=Got To Be There
TTITLE6=Human Condition
TTITLE7=She's Lookin' Good
TTITLE8=Open Up Your Back Door
TTITLE9=Wrapped Up In Boogie
TTITLE10=Louise Louise Blues
TTITLE11=Creole Queen
TTITLE12=Going Up The Country
TTITLE13=Let's Work Together
TTITLE14=Rollon and Tumblin
TTITLE15=Bullfrog Blues
EXTD=
EXTT0=
EXTT1=
EXTT2=
EXTT3=
EXTT4=
EXTT5=
EXTT6=
EXTT7=
EXTT8=
EXTT9=
EXTT10=
EXTT11=
EXTT12=
EXTT13=
EXTT14=
EXTT15=
PLAYORDER=
